<?xml version="1.0" standalone="no"?>
<!DOCTYPE svg PUBLIC "-//W3C//DTD SVG 20010904//EN"
 "http://www.w3.org/TR/2001/REC-SVG-20010904/DTD/svg10.dtd">
<svg version="1.0" xmlns="http://www.w3.org/2000/svg"
 width="1918.000000pt" height="857.000000pt" viewBox="0 0 1918.000000 857.000000"
 preserveAspectRatio="xMidYMid meet">

<g transform="translate(0.000000,857.000000) scale(0.100000,-0.100000)"
fill="#000000" stroke="none">
<path d="M0 4285 l0 -4285 9590 0 9590 0 0 4285 0 4285 -9590 0 -9590 0 0
-4285z m9420 3385 c0 -28 -3 -30 -35 -30 -32 0 -35 2 -35 30 0 28 3 30 35 30
32 0 35 -2 35 -30z m-1097 -134 c33 -85 52 -124 58 -115 4 7 27 66 51 131 l43
118 78 0 c69 0 77 -2 77 -19 0 -11 -9 -23 -20 -26 -19 -6 -20 -15 -20 -146 0
-132 1 -139 20 -139 15 0 20 -7 20 -25 0 -25 -1 -25 -81 -25 -78 0 -80 1 -77
23 2 14 11 23 26 25 21 3 22 7 22 124 0 67 -3 118 -7 114 -4 -3 -30 -66 -58
-139 -49 -128 -51 -132 -82 -135 l-31 -3 -53 135 c-54 135 -77 171 -65 99 3
-21 6 -73 6 -115 0 -71 2 -78 20 -78 15 0 20 -7 20 -25 0 -24 -2 -25 -75 -25
-72 0 -75 1 -75 24 0 15 7 26 20 29 19 5 20 14 20 140 0 126 -1 135 -20 140
-12 3 -20 14 -20 26 0 21 4 22 76 19 l77 -3 50 -129z m547 26 c86 -43 94 -188
14 -251 -25 -20 -38 -22 -88 -19 -49 4 -63 9 -82 31 -51 59 -53 153 -6 209 43
51 100 61 162 30z m230 -11 c0 -10 -7 -21 -14 -24 -13 -5 -11 -18 11 -82 14
-42 27 -75 28 -73 6 5 55 140 55 149 0 5 -7 9 -15 9 -8 0 -15 9 -15 20 0 18 7
20 65 20 57 0 65 -2 65 -19 0 -10 -8 -21 -17 -23 -12 -4 -32 -44 -62 -122
l-43 -116 -37 0 -36 0 -43 120 c-28 76 -49 120 -58 120 -8 0 -14 9 -14 20 0
18 7 20 65 20 57 0 65 -2 65 -19z m320 -95 c0 -105 1 -114 20 -119 12 -3 20
-14 20 -26 0 -19 -6 -21 -70 -21 -68 0 -70 1 -70 25 0 18 5 25 20 25 20 0 21
5 18 93 -3 87 -4 92 -25 95 -15 2 -23 10 -23 23 0 16 7 19 55 19 l55 0 0 -114z
m164 37 c-1 -43 -3 -80 -4 -83 -1 -3 -1 -9 0 -15 6 -28 6 -95 0 -95 -3 0 -19
13 -35 30 -51 53 -44 175 12 220 14 11 26 20 27 20 1 0 1 -35 0 -77z m5856
-1372 c72 -38 103 -137 66 -210 -15 -27 -14 -29 30 -72 24 -24 44 -49 44 -56
0 -25 -26 -13 -69 31 -43 44 -45 45 -72 30 -15 -7 -50 -14 -77 -14 -154 0
-211 206 -78 285 50 30 107 32 156 6z m-5880 -2126 c0 -8 -7 -15 -15 -15 -8 0
-15 7 -15 15 0 8 7 15 15 15 8 0 15 -7 15 -15z m405 4 c4 -6 -2 -13 -14 -16
-24 -6 -28 -23 -6 -23 8 0 15 -5 15 -10 0 -6 -7 -13 -15 -16 -10 -4 -15 -20
-15 -50 0 -36 -3 -44 -19 -44 -15 0 -19 10 -23 58 -7 70 11 112 47 112 13 0
27 -5 30 -11z m535 -51 c0 -35 3 -73 6 -85 5 -20 2 -21 -47 -21 -62 -1 -89 17
-89 58 0 38 32 64 70 57 28 -6 30 -5 30 23 0 20 5 30 15 30 12 0 15 -14 15
-62z m-1730 7 c19 -25 37 -45 42 -45 4 0 8 20 8 45 0 33 4 45 15 45 12 0 15
-16 15 -80 0 -97 -10 -101 -69 -32 l-40 47 -1 -47 c0 -36 -4 -48 -15 -48 -12
0 -15 16 -15 80 0 95 10 101 60 35z m204 -11 c9 -8 16 -28 16 -44 0 -16 -7
-36 -16 -44 -8 -9 -28 -16 -44 -16 -16 0 -36 7 -44 16 -9 8 -16 28 -16 44 0
36 24 60 60 60 16 0 36 -7 44 -16z m192 5 c4 -6 11 -6 19 1 8 6 24 10 37 8 21
-3 23 -9 26 -60 2 -46 0 -58 -12 -58 -10 0 -16 13 -18 43 -2 29 -8 42 -18 42
-10 0 -16 -13 -18 -42 -3 -35 -7 -43 -23 -43 -16 0 -19 7 -19 46 0 38 -3 45
-17 42 -13 -2 -19 -15 -21 -46 -3 -34 -7 -42 -23 -42 -17 0 -19 7 -19 58 l0
59 50 1 c27 0 52 -4 56 -9z m208 -5 c9 -8 16 -28 16 -44 0 -16 -7 -36 -16 -44
-8 -9 -28 -16 -44 -16 -16 0 -36 7 -44 16 -9 8 -16 28 -16 44 0 36 24 60 60
60 16 0 36 -7 44 -16z m56 4 c1 -7 7 -26 14 -43 l13 -30 13 43 c15 47 47 62
35 15 -27 -111 -60 -122 -93 -33 -21 59 -21 60 -2 60 11 0 20 -6 20 -12z m130
-48 c0 -47 -3 -60 -15 -60 -12 0 -15 13 -15 60 0 47 3 60 15 60 12 0 15 -13
15 -60z m130 40 c34 -34 26 -50 -25 -50 -25 0 -45 -4 -45 -9 0 -14 23 -19 43
-9 26 13 44 -2 22 -19 -43 -30 -105 -4 -105 45 0 56 69 83 110 42z m118 1 c3
-10 -2 -13 -22 -9 -40 8 -41 -9 -1 -26 36 -15 44 -33 23 -54 -17 -17 -73 -15
-88 3 -13 16 -10 18 33 15 34 -2 35 7 2 20 -31 12 -41 35 -24 56 15 18 70 15
77 -5z m264 2 c41 -37 10 -103 -48 -103 -34 0 -64 28 -64 60 0 9 7 26 16 38
18 27 69 30 96 5z m68 -29 c0 -38 3 -45 18 -42 12 2 18 15 20 46 3 34 7 42 23
42 16 0 19 -7 19 -44 0 -24 3 -51 6 -60 4 -12 0 -16 -15 -16 -12 0 -21 5 -21
12 0 9 -3 9 -12 0 -7 -7 -21 -12 -33 -12 -33 0 -45 20 -45 72 0 41 3 48 20 48
17 0 20 -7 20 -46z m208 34 c6 -6 12 -32 12 -59 0 -42 -3 -49 -20 -49 -17 0
-20 7 -20 46 0 38 -3 45 -17 42 -13 -2 -19 -15 -21 -46 -3 -34 -7 -42 -23 -42
-17 0 -19 7 -19 58 l0 59 48 1 c26 0 53 -4 60 -10z"/>
<path d="M8766 7498 c-23 -33 -21 -113 4 -138 46 -46 95 -8 95 75 0 29 -6 59
-14 68 -20 25 -67 21 -85 -5z"/>
<path d="M15336 6099 c-59 -16 -101 -82 -90 -139 9 -41 56 -88 98 -95 66 -13
146 49 146 113 0 80 -78 142 -154 121z"/>
<path d="M10414 3915 c-9 -23 3 -45 25 -45 23 0 35 28 20 46 -15 18 -38 18
-45 -1z"/>
<path d="M8904 3916 c-10 -26 4 -48 28 -44 17 2 23 10 23 28 0 18 -6 26 -23
28 -13 2 -25 -3 -28 -12z"/>
<path d="M9304 3916 c-10 -26 4 -48 28 -44 17 2 23 10 23 28 0 18 -6 26 -23
28 -13 2 -25 -3 -28 -12z"/>
<path d="M9633 3933 c-22 -8 -14 -23 12 -23 14 0 25 4 25 9 0 11 -21 19 -37
14z"/>
<path d="M10004 3916 c-9 -24 4 -48 23 -44 12 2 18 12 18 28 0 29 -32 41 -41
16z"/>
</g>
</svg>
